<svg version="1.1" id="Capa_1" xmlns="http://www.w3.org/2000/svg" x="0" y="0" viewBox="0 0 428.911 428.911" style="enable-background:new 0 0 428.911 428.911" xml:space="preserve"><path d="M417.357 166.575C282.714 124.794 155.465 69.879 28.09 9.932c-9.982-4.697-19.105 2.212-20.878 10.33-6.866 3.392-10.21 12.619-3.75 20.223.118.14.244.274.366.414C5.2 57.972 21.851 82.359 27.767 94.353c7.748 15.693 15.232 32.188 23.406 48.242 29.032 85.566 59.174 170.731 87.834 256.46 3.64 10.894 18.648 16.915 27.243 7.193 16.072-18.177 33.112-34.867 50.547-51.106 19.546 17.273 40.978 34.392 64.168 47.092 2.387 3.411 4.207 7.065 6.74 10.415 6.291 8.319 22.481 12.432 27.783 0 19.499-45.694 38.698-111.68 24.699-162.514 27.814-7.449 52.185-35.533 81.031-54.023 11.801-7.565 9.646-25.346-3.861-29.537zM307.861 318.4c-2.221 17.749-6.602 34.94-11.794 51.919-12.361-18.032-23.115-37.032-33.168-56.538 2.229-1.822 4.199-3.819 6.452-5.627 7.134-5.725 5.767-17.771 0-23.7-65.416-67.25-129.227-136.049-193.466-204.432 24.887 14.526 49.27 29.922 73.106 46.408 50.878 35.19 96.863 88.288 150.273 118.256 3.963 2.221 7.673 3.21 11.436 4.449-2.212 22.947.053 46.144-2.839 69.265z"/></svg>