<?xml version="1.0" encoding="iso-8859-1"?>
<!-- Generator: Adobe Illustrator 19.0.0, SVG Export Plug-In . SVG Version: 6.00 Build 0)  -->
<svg version="1.1" id="Capa_1" xmlns="http://www.w3.org/2000/svg" xmlns:xlink="http://www.w3.org/1999/xlink" x="0px" y="0px"
	 viewBox="0 0 428.911 428.911" style="enable-background:new 0 0 428.911 428.911;" xml:space="preserve">
<path d="M417.357,166.575C282.714,124.794,155.465,69.879,28.09,9.932c-9.982-4.697-19.105,2.212-20.878,10.33
	c-6.866,3.392-10.21,12.619-3.75,20.223c0.118,0.14,0.244,0.274,0.366,0.414C5.2,57.972,21.851,82.359,27.767,94.353
	c7.748,15.693,15.232,32.188,23.406,48.242c29.032,85.566,59.174,170.731,87.834,256.46c3.64,10.894,18.648,16.915,27.243,7.193
	c16.072-18.177,33.112-34.867,50.547-51.106c19.546,17.273,40.978,34.392,64.168,47.092c2.387,3.411,4.207,7.065,6.74,10.415
	c6.291,8.319,22.481,12.432,27.783,0c19.499-45.694,38.698-111.68,24.699-162.514c27.814-7.449,52.185-35.533,81.031-54.023
	C433.019,188.547,430.864,170.766,417.357,166.575z M307.861,318.4c-2.221,17.749-6.602,34.94-11.794,51.919
	c-12.361-18.032-23.115-37.032-33.168-56.538c2.229-1.822,4.199-3.819,6.452-5.627c7.134-5.725,5.767-17.771,0-23.7
	c-65.416-67.25-129.227-136.049-193.466-204.432c24.887,14.526,49.27,29.922,73.106,46.408
	c50.878,35.19,96.863,88.288,150.273,118.256c3.963,2.221,7.673,3.21,11.436,4.449C308.488,272.082,310.753,295.279,307.861,318.4z"
	/>
<g>
</g>
<g>
</g>
<g>
</g>
<g>
</g>
<g>
</g>
<g>
</g>
<g>
</g>
<g>
</g>
<g>
</g>
<g>
</g>
<g>
</g>
<g>
</g>
<g>
</g>
<g>
</g>
<g>
</g>
</svg>
